<?xml version="1.0" encoding="UTF-8"?><svg id="a" xmlns="http://www.w3.org/2000/svg" viewBox="0 0 278.45 39.62"><path d="M0,38.79v-.55l1.11-.44c.74-.26,1.23-.61,1.47-1.05,.24-.44,.36-1.01,.36-1.72V6.09c0-.74-.12-1.33-.36-1.77-.24-.44-.73-.79-1.47-1.05l-1.11-.44v-.55H14.06v.55l-.94,.39c-.7,.26-1.18,.6-1.44,1.02-.26,.42-.39,1.01-.39,1.74v13.45h13.23V5.98c0-.74-.12-1.32-.36-1.74-.24-.42-.73-.77-1.47-1.02l-1-.39v-.55h14.11v.55l-1.11,.44c-.7,.26-1.18,.61-1.44,1.05-.26,.44-.39,1.03-.39,1.77v28.94c0,.7,.13,1.27,.39,1.72,.26,.44,.74,.79,1.44,1.05l1.11,.44v.55h-14.11v-.55l1-.33c.74-.29,1.23-.65,1.47-1.08,.24-.42,.36-1,.36-1.74v-14.55H11.29v14.55c0,1.37,.61,2.31,1.83,2.82l.94,.33v.55H0Z" style="fill:#191541;"/><path d="M45.1,39.62c-2.14,0-3.94-.61-5.4-1.83-1.46-1.22-2.19-2.97-2.19-5.26,0-1.73,.89-3.33,2.66-4.79,1.77-1.46,4.56-2.55,8.36-3.29,.59-.11,1.25-.23,1.99-.36,.74-.13,1.51-.27,2.32-.42v-4.37c0-2.51-.3-4.27-.91-5.28-.61-1.01-1.56-1.52-2.85-1.52-.89,0-1.59,.29-2.1,.86-.52,.57-.85,1.56-1,2.96l-.11,.61c-.07,1.59-.46,2.75-1.16,3.49-.7,.74-1.57,1.11-2.6,1.11-.96,0-1.75-.29-2.38-.89-.63-.59-.94-1.38-.94-2.38,0-1.51,.53-2.78,1.58-3.82,1.05-1.03,2.44-1.81,4.18-2.32,1.73-.52,3.61-.77,5.64-.77,3.28,0,5.82,.8,7.61,2.41,1.79,1.6,2.68,4.22,2.68,7.83v12.23c0,1.66,.77,2.49,2.32,2.49h1.22l.5,.44c-.7,.89-1.47,1.57-2.3,2.05s-2,.72-3.51,.72c-1.62,0-2.91-.38-3.85-1.13-.94-.76-1.56-1.76-1.85-3.02-1.11,1.18-2.24,2.19-3.4,3.02s-2.67,1.25-4.51,1.25Zm3.38-3.38c.74,0,1.43-.17,2.08-.53,.65-.35,1.41-.89,2.3-1.63v-9.3c-.37,.07-.74,.15-1.11,.22-.37,.07-.79,.15-1.27,.22-1.7,.44-3.05,1.19-4.07,2.24-1.02,1.05-1.52,2.46-1.52,4.23,0,1.51,.35,2.65,1.05,3.4,.7,.76,1.55,1.13,2.55,1.13Z" style="fill:#191541;"/><path d="M76.2,39.62c-2.36,0-4.2-.59-5.51-1.77-1.31-1.18-1.96-3.06-1.96-5.64V13.28h-3.82v-.55l1.33-.22c1.14-.26,2.13-.63,2.96-1.11,.83-.48,1.65-1.12,2.46-1.94l4.54-5.04h.55l-.17,7.75h6.2v1.11h-6.25v19.92c0,1.29,.29,2.27,.86,2.93,.57,.66,1.3,1,2.19,1,.77,0,1.46-.19,2.05-.58,.59-.39,1.18-.91,1.77-1.58l.55,.55c-.74,1.25-1.75,2.25-3.04,2.99-1.29,.74-2.86,1.11-4.7,1.11Z" style="fill:#191541;"/><path d="M99.22,39.62c-2.51,0-4.79-.54-6.83-1.63-2.05-1.09-3.67-2.67-4.87-4.76-1.2-2.08-1.8-4.64-1.8-7.66s.65-5.54,1.96-7.66c1.31-2.12,3.06-3.74,5.26-4.87,2.19-1.12,4.6-1.69,7.22-1.69,2.14,0,3.95,.35,5.42,1.05,1.48,.7,2.6,1.61,3.38,2.74,.77,1.13,1.16,2.3,1.16,3.51,0,1.03-.31,1.84-.94,2.41-.63,.57-1.44,.86-2.43,.86-1.07,0-1.94-.39-2.6-1.16-.66-.77-1.05-1.79-1.16-3.04-.04-.81-.02-1.5,.06-2.08,.07-.57,.07-1.15,0-1.74-.15-.63-.38-1.04-.69-1.25-.31-.2-.75-.3-1.3-.3-2.25,0-3.99,.98-5.23,2.93-1.24,1.96-1.85,5.07-1.85,9.35,0,3.73,.69,6.58,2.08,8.55,1.38,1.97,3.51,2.96,6.39,2.96,1.73,0,3.14-.31,4.21-.94,1.07-.63,2.1-1.57,3.1-2.82l.55,.44c-.92,2.18-2.34,3.86-4.26,5.04-1.92,1.18-4.19,1.77-6.81,1.77Z" style="fill:#191541;"/><path d="M111.84,38.79v-.55l.66-.22c1.33-.44,1.99-1.36,1.99-2.77V5.7c0-.77-.13-1.35-.39-1.72-.26-.37-.76-.65-1.49-.83l-.83-.22v-.55l9.74-2.38,.89,.5-.22,7.8v6.92c1.29-1.07,2.68-1.98,4.18-2.74,1.49-.76,3.14-1.13,4.95-1.13,2.4,0,4.31,.68,5.73,2.05,1.42,1.37,2.13,3.47,2.13,6.31v15.6c0,.74,.15,1.33,.44,1.77,.29,.44,.81,.77,1.55,1l.44,.17v.55h-12.95v-.55l.66-.17c1.33-.44,1.99-1.38,1.99-2.82V17.87c0-1.48-.25-2.49-.75-3.04s-1.38-.83-2.63-.83c-.81,0-1.7,.16-2.66,.47-.96,.31-1.94,.86-2.93,1.63v19.26c0,1.44,.66,2.36,1.99,2.77l.44,.11v.55h-12.95Z" style="fill:#191541;"/><path d="M155.94,38.79v-.55l1.11-.44c.74-.26,1.23-.61,1.47-1.05,.24-.44,.36-1.01,.36-1.72V6.09c0-.74-.12-1.33-.36-1.77-.24-.44-.73-.79-1.47-1.05l-1.11-.44v-.55h14.06v.55l-.94,.39c-.7,.26-1.18,.6-1.44,1.02-.26,.42-.39,1.01-.39,1.74v13.45h13.23V5.98c0-.74-.12-1.32-.36-1.74-.24-.42-.73-.77-1.47-1.02l-1-.39v-.55h14.11v.55l-1.11,.44c-.7,.26-1.18,.61-1.44,1.05s-.39,1.03-.39,1.77v28.94c0,.7,.13,1.27,.39,1.72,.26,.44,.74,.79,1.44,1.05l1.11,.44v.55h-14.11v-.55l1-.33c.74-.29,1.23-.65,1.47-1.08,.24-.42,.36-1,.36-1.74v-14.55h-13.23v14.55c0,1.37,.61,2.31,1.83,2.82l.94,.33v.55h-14.06Z" style="fill:#191541;"/><path d="M206.52,11.34c2.4,0,4.45,.49,6.14,1.47,1.7,.98,3,2.31,3.9,3.98,.9,1.68,1.36,3.59,1.36,5.73,0,.41-.02,.82-.05,1.25-.04,.42-.11,.8-.22,1.13h-16.49c.04,3.98,.75,6.85,2.13,8.6,1.38,1.75,3.44,2.63,6.17,2.63,1.84,0,3.34-.29,4.48-.89,1.14-.59,2.21-1.46,3.21-2.6l.55,.5c-1.14,2.03-2.67,3.62-4.57,4.76-1.9,1.14-4.18,1.72-6.83,1.72s-4.94-.56-6.97-1.69c-2.03-1.12-3.62-2.74-4.76-4.84-1.14-2.1-1.72-4.61-1.72-7.53s.66-5.6,1.99-7.72c1.33-2.12,3.03-3.73,5.12-4.84s4.27-1.66,6.56-1.66Zm-.17,1.11c-1.07,0-1.98,.32-2.74,.97-.76,.65-1.35,1.79-1.77,3.43-.42,1.64-.66,3.96-.69,6.94h9.46c.37-4.02,.22-6.92-.44-8.69-.66-1.77-1.94-2.66-3.82-2.66Z" style="fill:#191541;"/><path d="M228.54,39.62c-2.14,0-3.94-.61-5.39-1.83-1.46-1.22-2.19-2.97-2.19-5.26,0-1.73,.89-3.33,2.66-4.79,1.77-1.46,4.56-2.55,8.36-3.29,.59-.11,1.25-.23,1.99-.36,.74-.13,1.51-.27,2.32-.42v-4.37c0-2.51-.3-4.27-.91-5.28-.61-1.01-1.56-1.52-2.85-1.52-.88,0-1.59,.29-2.1,.86-.52,.57-.85,1.56-1,2.96l-.11,.61c-.07,1.59-.46,2.75-1.16,3.49-.7,.74-1.57,1.11-2.6,1.11-.96,0-1.75-.29-2.38-.89-.63-.59-.94-1.38-.94-2.38,0-1.51,.53-2.78,1.58-3.82,1.05-1.03,2.44-1.81,4.18-2.32,1.73-.52,3.62-.77,5.64-.77,3.28,0,5.82,.8,7.61,2.41,1.79,1.6,2.68,4.22,2.68,7.83v12.23c0,1.66,.78,2.49,2.32,2.49h1.22l.5,.44c-.7,.89-1.47,1.57-2.3,2.05s-2,.72-3.51,.72c-1.62,0-2.91-.38-3.85-1.13s-1.56-1.76-1.85-3.02c-1.11,1.18-2.24,2.19-3.4,3.02s-2.67,1.25-4.51,1.25Zm3.38-3.38c.74,0,1.43-.17,2.08-.53,.64-.35,1.41-.89,2.3-1.63v-9.3c-.37,.07-.74,.15-1.11,.22-.37,.07-.79,.15-1.27,.22-1.7,.44-3.05,1.19-4.07,2.24s-1.52,2.46-1.52,4.23c0,1.51,.35,2.65,1.05,3.4,.7,.76,1.55,1.13,2.55,1.13Z" style="fill:#191541;"/><path d="M260.86,39.62c-2.18,0-4.13-.49-5.87-1.47-1.73-.98-3.11-2.49-4.12-4.54-1.01-2.05-1.52-4.68-1.52-7.89s.57-5.93,1.72-8.05c1.14-2.12,2.66-3.71,4.54-4.76,1.88-1.05,3.93-1.58,6.14-1.58,1.29,0,2.53,.13,3.71,.39,1.18,.26,2.23,.65,3.15,1.16V5.7c0-.77-.12-1.35-.36-1.72-.24-.37-.75-.63-1.52-.77l-1.05-.22v-.55l10.07-2.44,.61,.5-.22,7.75v27.06c0,.74,.13,1.34,.39,1.8,.26,.46,.74,.78,1.44,.97l.5,.17v.55l-9.46,.61-.5-1.99c-1,.66-2.13,1.2-3.4,1.6-1.27,.41-2.68,.61-4.23,.61Zm3.21-2.05c1.55,0,2.97-.46,4.26-1.38V14.22c-1.37-.89-2.77-1.33-4.21-1.33-1.77,0-3.28,1.02-4.54,3.07-1.25,2.05-1.88,5.27-1.88,9.66s.59,7.48,1.77,9.27c1.18,1.79,2.71,2.68,4.59,2.68Z" style="fill:#191541;"/></svg>